<svg width="9" height="10" viewBox="0 0 9 10" fill="none" xmlns="http://www.w3.org/2000/svg">
<path d="M2.18194 5.88355L3.06091 6.64177V2.81921C3.06091 2.41845 3.38336 2.09381 3.78149 2.09381C4.17963 2.09381 4.50208 2.41845 4.50208 2.81921V4.77621L5.73237 4.9744C6.52645 5.09428 6.92372 5.15378 7.20329 5.32266C7.6653 5.60136 8 6.01962 8 6.63083C8 7.05609 7.89543 7.34135 7.64124 8.10831C7.48067 8.59483 7.39973 8.83808 7.26848 9.03059C7.05278 9.34708 6.73367 9.57864 6.36589 9.68555C6.14275 9.7503 5.88812 9.7503 5.37842 9.7503H4.94659C4.26888 9.7503 3.93025 9.7503 3.6288 9.62517C3.57477 9.60246 3.52191 9.57706 3.47042 9.54904C3.18385 9.39241 2.97034 9.12816 2.54289 8.59876L1.16035 6.88546C1.05719 6.75743 1.00064 6.59811 1.00001 6.43368C0.999369 6.26926 1.05468 6.10951 1.15685 5.98068C1.21657 5.90527 1.29092 5.84271 1.37544 5.79678C1.45997 5.75085 1.55291 5.7225 1.64868 5.71342C1.74444 5.70435 1.84105 5.71474 1.9327 5.74398C2.02434 5.77322 2.10913 5.8207 2.18194 5.88355Z" stroke="white" stroke-opacity="0.5" stroke-width="0.5" stroke-linecap="round" stroke-linejoin="round"/>
<path d="M5.51305 2.75005C5.51305 2.28591 5.32867 1.84078 5.00047 1.51258C4.67227 1.18438 4.22714 1 3.76299 1C3.29885 1 2.85372 1.18438 2.52552 1.51258C2.19732 1.84078 2.01294 2.28591 2.01294 2.75005" stroke="white" stroke-opacity="0.5" stroke-width="0.5" stroke-linecap="round" stroke-linejoin="round"/>
</svg>
