<svg width="10" height="10" viewBox="0 0 10 10" fill="none" xmlns="http://www.w3.org/2000/svg">
<path d="M4.69 0C4.32157 0.34331 4.02605 0.757312 3.82109 1.21731C3.61614 1.67731 3.50593 2.17387 3.49704 2.67739C3.48816 3.1809 3.58078 3.68105 3.76939 4.14799C3.95799 4.61493 4.23871 5.0391 4.59481 5.39519C4.9509 5.75129 5.37507 6.03201 5.84201 6.22061C6.30895 6.40922 6.8091 6.50184 7.31261 6.49296C7.81613 6.48407 8.31269 6.37386 8.77269 6.1689C9.23269 5.96394 9.64669 5.66843 9.99 5.3C9.831 7.9175 7.658 9.9905 5.0005 9.9905C2.2385 9.9905 0 7.752 0 4.9905C0 2.333 2.073 0.16 4.69 0Z" fill="white"/>
</svg>
