<svg width="15" height="14" viewBox="0 0 15 14" fill="none" xmlns="http://www.w3.org/2000/svg">
<path d="M14 6.15C14.4694 6.15 14.85 6.53056 14.85 7C14.85 7.46944 14.4694 7.85 14 7.85V6.15ZM0.398959 7.60104C0.0670137 7.2691 0.0670137 6.7309 0.398959 6.39896L5.80833 0.989592C6.14027 0.657647 6.67846 0.657647 7.01041 0.989592C7.34235 1.32154 7.34235 1.85973 7.01041 2.19167L2.20208 7L7.01041 11.8083C7.34235 12.1403 7.34235 12.6785 7.01041 13.0104C6.67846 13.3424 6.14027 13.3424 5.80833 13.0104L0.398959 7.60104ZM14 7V7.85H1V7V6.15H14V7Z" fill="black"/>
</svg>
