<svg width="25" height="27" viewBox="0 0 25 27" fill="none" xmlns="http://www.w3.org/2000/svg">
<path d="M1.875 22.482C1.875 23.4765 2.27009 24.4304 2.97335 25.1336C3.67661 25.8369 4.63044 26.232 5.625 26.232H11.0156C11.0778 26.232 11.1374 26.2073 11.1814 26.1633C11.2253 26.1194 11.25 26.0598 11.25 25.9976V15.2164C11.25 15.1542 11.2253 15.0946 11.1814 15.0506C11.1374 15.0067 11.0778 14.982 11.0156 14.982H2.34375C2.21943 14.982 2.1002 15.0314 2.01229 15.1193C1.92439 15.2072 1.875 15.3264 1.875 15.4507V22.482ZM11.25 12.8726V6.54449H13.125V12.8726C13.125 12.9348 13.1497 12.9944 13.1936 13.0383C13.2376 13.0823 13.2972 13.107 13.3594 13.107H21.5625C21.8819 13.107 22.1989 13.0525 22.5 12.9459C23.0479 12.7513 23.5222 12.3921 23.8579 11.9174C24.1935 11.4428 24.3742 10.8759 24.375 10.2945V9.35699C24.375 8.61107 24.0787 7.8957 23.5512 7.36825C23.0238 6.8408 22.3084 6.54449 21.5625 6.54449H19.1871C19.1667 6.54416 19.1467 6.53851 19.1292 6.52809C19.1116 6.51767 19.0971 6.50285 19.087 6.48509C19.077 6.46733 19.0717 6.44725 19.0718 6.42683C19.0719 6.40642 19.0773 6.38638 19.0875 6.36871C19.63 5.45282 19.8062 4.36571 19.5807 3.32536C19.3553 2.28502 18.7449 1.36834 17.872 0.759154C16.9991 0.149963 15.9281 -0.106708 14.8738 0.0406063C13.8196 0.18792 12.86 0.728329 12.1875 1.55347C11.515 0.728329 10.5554 0.18792 9.50115 0.0406063C8.4469 -0.106708 7.37594 0.149963 6.503 0.759154C5.63006 1.36834 5.01968 2.28502 4.79425 3.32536C4.56883 4.36571 4.74502 5.45282 5.2875 6.36871C5.29771 6.38638 5.30312 6.40642 5.30321 6.42683C5.30329 6.44725 5.29804 6.46733 5.28798 6.48509C5.27791 6.50285 5.26338 6.51767 5.24583 6.52809C5.22827 6.53851 5.2083 6.54416 5.18789 6.54449H2.8125C2.06658 6.54449 1.35121 6.8408 0.823762 7.36825C0.296316 7.8957 0 8.61107 0 9.35699V10.2945C0.000827474 10.8759 0.181467 11.4428 0.51715 11.9174C0.852834 12.3921 1.32713 12.7513 1.875 12.9459C2.17606 13.0525 2.49311 13.107 2.8125 13.107H11.0156C11.0778 13.107 11.1374 13.0823 11.1814 13.0383C11.2253 12.9944 11.25 12.9348 11.25 12.8726ZM13.125 4.20074C13.125 3.73719 13.2625 3.28405 13.52 2.89862C13.7775 2.51319 14.1436 2.21279 14.5718 2.03539C15.0001 1.858 15.4714 1.81159 15.926 1.90202C16.3806 1.99246 16.7983 2.21568 17.126 2.54346C17.4538 2.87124 17.677 3.28885 17.7675 3.74349C17.8579 4.19814 17.8115 4.66939 17.6341 5.09765C17.4567 5.52592 17.1563 5.89196 16.7709 6.14949C16.3854 6.40703 15.9323 6.54449 15.4688 6.54449H13.125V4.20074ZM8.73867 1.86285C9.05976 1.83983 9.38216 1.88321 9.68575 1.99027C9.98934 2.09733 10.2676 2.26579 10.5032 2.48514C10.7389 2.70449 10.9268 2.97002 11.0552 3.26519C11.1837 3.56035 11.25 3.87882 11.25 4.20074V6.54449H8.90625C8.30021 6.54293 7.71833 6.30668 7.28274 5.88532C6.84714 5.46396 6.5917 4.89025 6.57002 4.2846C6.54833 3.67894 6.7621 3.08843 7.16645 2.637C7.5708 2.18557 8.13429 1.90832 8.73867 1.86343V1.86285ZM13.3594 26.232H18.75C19.7446 26.232 20.6984 25.8369 21.4016 25.1336C22.1049 24.4304 22.5 23.4765 22.5 22.482V15.4507C22.5 15.3264 22.4506 15.2072 22.3627 15.1193C22.2748 15.0314 22.1556 14.982 22.0312 14.982H13.3594C13.2972 14.982 13.2376 15.0067 13.1936 15.0506C13.1497 15.0946 13.125 15.1542 13.125 15.2164V25.9976C13.125 26.0598 13.1497 26.1194 13.1936 26.1633C13.2376 26.2073 13.2972 26.232 13.3594 26.232Z" fill="white"/>
</svg>
