<svg width="20" height="22" viewBox="0 0 20 22" fill="none" xmlns="http://www.w3.org/2000/svg">
<path d="M2.5 19.375H6.25V13.125C6.25 12.7708 6.37 12.4742 6.61 12.235C6.85 11.9958 7.14667 11.8758 7.5 11.875H12.5C12.8542 11.875 13.1513 11.995 13.3913 12.235C13.6313 12.475 13.7508 12.7717 13.75 13.125V19.375H17.5V8.125L10 2.5L2.5 8.125V19.375ZM0 19.375V8.125C0 7.72917 0.0887498 7.35417 0.26625 7C0.44375 6.64583 0.688334 6.35417 1 6.125L8.5 0.5C8.9375 0.166667 9.4375 0 10 0C10.5625 0 11.0625 0.166667 11.5 0.5L19 6.125C19.3125 6.35417 19.5575 6.64583 19.735 7C19.9125 7.35417 20.0008 7.72917 20 8.125V19.375C20 20.0625 19.755 20.6513 19.265 21.1413C18.775 21.6313 18.1867 21.8758 17.5 21.875H12.5C12.1458 21.875 11.8492 21.755 11.61 21.515C11.3708 21.275 11.2508 20.9783 11.25 20.625V14.375H8.75V20.625C8.75 20.9792 8.63 21.2762 8.39 21.5162C8.15 21.7562 7.85333 21.8758 7.5 21.875H2.5C1.8125 21.875 1.22417 21.6304 0.735 21.1413C0.245833 20.6521 0.000833333 20.0633 0 19.375Z" fill="white"/>
</svg>
