<svg width="10" height="9" viewBox="0 0 10 9" fill="none" xmlns="http://www.w3.org/2000/svg">
<g filter="url(#filter0_i_5_37)">
<path d="M5 0C5.11051 0 5.21649 0.0438987 5.29463 0.122039C5.37277 0.200179 5.41667 0.30616 5.41667 0.416667V1.25C5.41667 1.36051 5.37277 1.46649 5.29463 1.54463C5.21649 1.62277 5.11051 1.66667 5 1.66667C4.88949 1.66667 4.78351 1.62277 4.70537 1.54463C4.62723 1.46649 4.58333 1.36051 4.58333 1.25V0.416667C4.58333 0.30616 4.62723 0.200179 4.70537 0.122039C4.78351 0.0438987 4.88949 0 5 0ZM0 5C0 4.88949 0.0438987 4.78351 0.122039 4.70537C0.200179 4.62723 0.30616 4.58333 0.416667 4.58333H1.25C1.36051 4.58333 1.46649 4.62723 1.54463 4.70537C1.62277 4.78351 1.66667 4.88949 1.66667 5C1.66667 5.11051 1.62277 5.21649 1.54463 5.29463C1.46649 5.37277 1.36051 5.41667 1.25 5.41667H0.416667C0.30616 5.41667 0.200179 5.37277 0.122039 5.29463C0.0438987 5.21649 0 5.11051 0 5ZM8.33333 5C8.33333 4.88949 8.37723 4.78351 8.45537 4.70537C8.53351 4.62723 8.63949 4.58333 8.75 4.58333H9.58333C9.69384 4.58333 9.79982 4.62723 9.87796 4.70537C9.9561 4.78351 10 4.88949 10 5C10 5.11051 9.9561 5.21649 9.87796 5.29463C9.79982 5.37277 9.69384 5.41667 9.58333 5.41667H8.75C8.63949 5.41667 8.53351 5.37277 8.45537 5.29463C8.37723 5.21649 8.33333 5.11051 8.33333 5ZM8.53542 1.46458C8.61353 1.54272 8.65741 1.64868 8.65741 1.75917C8.65741 1.86965 8.61353 1.97561 8.53542 2.05375L7.94625 2.64292C7.86767 2.71882 7.76241 2.76081 7.65317 2.75986C7.54392 2.75891 7.43941 2.71509 7.36216 2.63784C7.28491 2.56059 7.24109 2.45608 7.24014 2.34683C7.23919 2.23759 7.28118 2.13233 7.35708 2.05375L7.94625 1.46458C8.02439 1.38647 8.13035 1.34259 8.24083 1.34259C8.35132 1.34259 8.45728 1.38647 8.53542 1.46458ZM1.46458 1.46458C1.54272 1.38647 1.64868 1.34259 1.75917 1.34259C1.86965 1.34259 1.97561 1.38647 2.05375 1.46458L2.64292 2.05375C2.68364 2.09194 2.71628 2.13793 2.73888 2.18898C2.76149 2.24003 2.77361 2.2951 2.77451 2.35092C2.77542 2.40675 2.7651 2.46218 2.74416 2.51394C2.72322 2.5657 2.6921 2.61272 2.65263 2.65221C2.61317 2.6917 2.56617 2.72286 2.51443 2.74384C2.46269 2.76481 2.40726 2.77517 2.35143 2.7743C2.29561 2.77344 2.24053 2.76136 2.18946 2.73879C2.13839 2.71622 2.09239 2.68362 2.05417 2.64292L1.46458 2.05417C1.38647 1.97603 1.34259 1.87007 1.34259 1.75958C1.34259 1.6491 1.38647 1.54272 1.46458 1.46458ZM2.91667 8.33333C2.91667 8.22283 2.96057 8.11685 3.03871 8.0387C3.11685 7.96056 3.22283 7.91667 3.33333 7.91667H6.66667C6.77717 7.91667 6.88315 7.96056 6.96129 8.0387C7.03943 8.11685 7.08333 8.22283 7.08333 8.33333C7.08333 8.44384 7.03943 8.54982 6.96129 8.62796C6.88315 8.7061 6.77717 8.75 6.66667 8.75H3.33333C3.22283 8.75 3.11685 8.7061 3.03871 8.62796C2.96057 8.54982 2.91667 8.44384 2.91667 8.33333ZM8.33333 6.66667H7.39292C7.73467 6.17815 7.91755 5.59618 7.91667 5C7.91667 3.39083 6.60917 2.08333 5 2.08333C3.39083 2.08333 2.08333 3.39083 2.08333 5C2.08333 5.61792 2.27458 6.19375 2.60292 6.66667H1.66667C1.55616 6.66667 1.45018 6.71056 1.37204 6.7887C1.2939 6.86685 1.25 6.97283 1.25 7.08333C1.25 7.19384 1.2939 7.29982 1.37204 7.37796C1.45018 7.4561 1.55616 7.5 1.66667 7.5H8.33333C8.44384 7.5 8.54982 7.4561 8.62796 7.37796C8.7061 7.29982 8.75 7.19384 8.75 7.08333C8.75 6.97283 8.7061 6.86685 8.62796 6.7887C8.54982 6.71056 8.44384 6.66667 8.33333 6.66667Z" fill="#626262"/>
</g>
<defs>
<filter id="filter0_i_5_37" x="0" y="0" width="10" height="8.75" filterUnits="userSpaceOnUse" color-interpolation-filters="sRGB">
<feFlood flood-opacity="0" result="BackgroundImageFix"/>
<feBlend mode="normal" in="SourceGraphic" in2="BackgroundImageFix" result="shape"/>
<feColorMatrix in="SourceAlpha" type="matrix" values="0 0 0 0 0 0 0 0 0 0 0 0 0 0 0 0 0 0 127 0" result="hardAlpha"/>
<feOffset/>
<feGaussianBlur stdDeviation="0.5"/>
<feComposite in2="hardAlpha" operator="arithmetic" k2="-1" k3="1"/>
<feColorMatrix type="matrix" values="0 0 0 0 0.0480769 0 0 0 0 0.0480769 0 0 0 0 0.0480769 0 0 0 0.41 0"/>
<feBlend mode="normal" in2="shape" result="effect1_innerShadow_5_37"/>
</filter>
</defs>
</svg>
