<svg width="18" height="5" viewBox="0 0 18 5" fill="none" xmlns="http://www.w3.org/2000/svg">
<rect width="0.514597" height="4.56335" transform="matrix(0.704429 0.709775 -0.704429 0.709775 4.13391 0.588745)" fill="white"/>
<rect width="0.514596" height="4.56334" transform="matrix(0.704654 0.709551 -0.704654 0.709551 7.47473 0.571411)" fill="white"/>
<rect width="0.5146" height="4.56331" transform="matrix(-0.703925 0.710274 0.705382 0.708827 7.47473 0.571411)" fill="white"/>
<rect width="0.514601" height="4.56332" transform="matrix(0.7037 0.710497 -0.705157 0.709051 10.3317 0.571411)" fill="white"/>
<rect x="0.784302" y="0.587524" width="0.486022" height="3.59121" fill="white"/>
<rect x="4.13391" y="0.587585" width="0.486022" height="3.59121" fill="white"/>
<rect width="0.514596" height="4.56334" transform="matrix(-0.704654 0.709551 0.704654 0.709551 13.722 0.605042)" fill="white"/>
<rect width="0.514597" height="4.56335" transform="matrix(-0.704429 0.709775 0.704429 0.709775 10.3812 0.587769)" fill="white"/>
<rect width="0.486022" height="3.59121" transform="matrix(-1 0 0 1 17.0717 0.603943)" fill="white"/>
<rect width="0.486022" height="3.59121" transform="matrix(-1 0 0 1 13.722 0.603882)" fill="white"/>
</svg>
