<svg width="25" height="29" viewBox="0 0 25 29" fill="none" xmlns="http://www.w3.org/2000/svg">
<path d="M3.28125 28.125H1.40625C1.03329 28.125 0.675604 27.9768 0.411881 27.7131C0.148158 27.4494 0 27.0917 0 26.7188V18.2812C0 17.9083 0.148158 17.5506 0.411881 17.2869C0.675604 17.0232 1.03329 16.875 1.40625 16.875H3.28125C3.65421 16.875 4.0119 17.0232 4.27562 17.2869C4.53934 17.5506 4.6875 17.9083 4.6875 18.2812V26.7188C4.6875 27.0917 4.53934 27.4494 4.27562 27.7131C4.0119 27.9768 3.65421 28.125 3.28125 28.125ZM16.4062 28.125H14.5312C14.1583 28.125 13.8006 27.9768 13.5369 27.7131C13.2732 27.4494 13.125 27.0917 13.125 26.7188V12.6562C13.125 12.2833 13.2732 11.9256 13.5369 11.6619C13.8006 11.3982 14.1583 11.25 14.5312 11.25H16.4062C16.7792 11.25 17.1369 11.3982 17.4006 11.6619C17.6643 11.9256 17.8125 12.2833 17.8125 12.6562V26.7188C17.8125 27.0917 17.6643 27.4494 17.4006 27.7131C17.1369 27.9768 16.7792 28.125 16.4062 28.125ZM22.9688 28.125H21.0938C20.7208 28.125 20.3631 27.9768 20.0994 27.7131C19.8357 27.4494 19.6875 27.0917 19.6875 26.7188V6.09375C19.6875 5.72079 19.8357 5.3631 20.0994 5.09938C20.3631 4.83566 20.7208 4.6875 21.0938 4.6875H22.9688C23.3417 4.6875 23.6994 4.83566 23.9631 5.09938C24.2268 5.3631 24.375 5.72079 24.375 6.09375V26.7188C24.375 27.0917 24.2268 27.4494 23.9631 27.7131C23.6994 27.9768 23.3417 28.125 22.9688 28.125ZM9.84375 28.125H7.96875C7.59579 28.125 7.2381 27.9768 6.97438 27.7131C6.71066 27.4494 6.5625 27.0917 6.5625 26.7188V1.40625C6.5625 1.03329 6.71066 0.675604 6.97438 0.411881C7.2381 0.148158 7.59579 0 7.96875 0H9.84375C10.2167 0 10.5744 0.148158 10.8381 0.411881C11.1018 0.675604 11.25 1.03329 11.25 1.40625V26.7188C11.25 27.0917 11.1018 27.4494 10.8381 27.7131C10.5744 27.9768 10.2167 28.125 9.84375 28.125Z" fill="white"/>
</svg>
