<svg width="20" height="25" viewBox="0 0 20 25" fill="none" xmlns="http://www.w3.org/2000/svg">
<path d="M5 13.75H15V11.25H5V13.75ZM5 17.5H15V15H5V17.5ZM5 21.25H11.25V18.75H5V21.25ZM2.5 25C1.8125 25 1.22417 24.7554 0.735 24.2663C0.245833 23.7771 0.000833333 23.1883 0 22.5V2.5C0 1.8125 0.245 1.22417 0.735 0.735C1.225 0.245833 1.81333 0.000833333 2.5 0H12.5L20 7.5V22.5C20 23.1875 19.7554 23.7763 19.2663 24.2663C18.7771 24.7563 18.1883 25.0008 17.5 25H2.5ZM11.25 8.75H17.5L11.25 2.5V8.75Z" fill="white"/>
</svg>
